<?xml version="1.0" standalone="no"?>
<!DOCTYPE svg PUBLIC "-//W3C//DTD SVG 20010904//EN"
 "http://www.w3.org/TR/2001/REC-SVG-20010904/DTD/svg10.dtd">
<svg version="1.0" xmlns="http://www.w3.org/2000/svg"
 width="206.000000pt" height="206.000000pt" viewBox="0 0 206.000000 206.000000"
 preserveAspectRatio="xMidYMid meet">
<metadata>
Created by potrace 1.14, written by Peter Selinger 2001-2017
</metadata>
<g transform="translate(0.000000,206.000000) scale(0.100000,-0.100000)"
fill="#000000" stroke="none">
<path d="M190 1030 l0 -1030 840 0 840 0 0 1030 0 1030 -840 0 -840 0 0 -1030z
m1320 575 l0 -115 -365 0 -365 0 0 -150 0 -150 340 0 340 0 0 -110 0 -110
-340 0 -340 0 0 -185 0 -185 380 0 380 0 0 -115 0 -115 -515 0 -515 0 0 675 0
675 500 0 500 0 0 -115z"/>
</g>
</svg>
