<?xml version="1.0" standalone="no"?>
<!DOCTYPE svg PUBLIC "-//W3C//DTD SVG 20010904//EN"
 "http://www.w3.org/TR/2001/REC-SVG-20010904/DTD/svg10.dtd">
<svg version="1.0" xmlns="http://www.w3.org/2000/svg"
 width="640.000000pt" height="640.000000pt" viewBox="0 0 640.000000 640.000000"
 preserveAspectRatio="xMidYMid meet">
<metadata>
Created by potrace 1.14, written by Peter Selinger 2001-2017
</metadata>
<g transform="translate(0.000000,640.000000) scale(0.100000,-0.100000)"
fill="#000000" stroke="none">
<path d="M540 3200 l0 -3200 2665 0 2665 0 0 3200 0 3200 -2665 0 -2665 0 0
-3200z m3945 1390 l0 -314 -60 -2 c-153 -4 -491 -15 -590 -19 -232 -11 -419
-17 -450 -15 -11 0 -81 -2 -155 -5 -74 -3 -185 -7 -246 -9 -61 -1 -115 -6
-120 -9 -6 -3 -16 -2 -23 3 -8 4 -25 5 -40 1 -14 -3 -61 -6 -103 -6 -45 0 -78
-4 -79 -10 0 -5 -2 -17 -3 -25 -2 -8 -7 -53 -11 -100 -4 -47 -8 -98 -10 -115
-2 -16 -6 -66 -10 -110 -4 -44 -9 -96 -10 -115 -2 -19 -6 -64 -10 -100 -12
-130 -12 -131 24 -120 15 4 34 4 41 0 6 -4 27 -4 46 0 19 4 36 4 39 0 2 -4 23
-4 45 0 23 4 40 3 40 -2 0 -5 5 -6 11 -2 13 8 185 7 199 -1 5 -3 10 -2 10 3 0
5 20 6 45 2 25 -4 48 -4 50 0 3 5 20 4 39 0 19 -4 39 -4 46 0 7 4 27 4 45 0
18 -4 38 -4 45 0 7 4 27 4 46 0 18 -4 35 -5 38 -2 5 5 61 4 126 -1 14 -2 42 0
63 4 20 3 37 3 37 -1 0 -4 18 -4 40 0 22 4 40 4 40 0 0 -4 18 -4 40 0 23 4 40
3 40 -2 0 -5 5 -6 10 -3 6 4 41 6 78 6 79 -1 90 -1 160 -1 30 0 58 -2 63 -6 5
-3 9 -1 9 4 0 5 19 6 43 2 24 -3 52 -3 63 0 10 4 30 4 44 0 14 -3 36 -4 50 0
14 3 41 3 60 0 l35 -5 1 -308 c1 -169 -3 -310 -7 -313 -5 -3 -69 -7 -141 -9
-166 -6 -375 -13 -538 -20 -69 -2 -201 -7 -295 -10 -93 -4 -219 -8 -280 -10
-60 -3 -193 -7 -295 -10 -102 -4 -189 -10 -193 -14 -9 -9 -12 -825 -3 -840 3
-5 36 -10 74 -11 86 -1 307 -8 307 -10 0 0 88 -3 195 -6 107 -2 247 -7 310 -9
228 -9 557 -18 657 -19 57 -1 103 -3 103 -6 0 -3 57 -6 128 -7 70 -1 142 -2
160 -2 l32 -1 0 -314 0 -314 -23 -4 c-13 -3 -32 -1 -43 2 -10 4 -31 4 -45 0
-15 -4 -32 -4 -39 0 -7 5 -23 5 -34 0 -11 -4 -33 -4 -47 0 -15 4 -32 4 -39 0
-6 -4 -27 -4 -45 0 -18 4 -39 4 -45 0 -7 -4 -26 -4 -41 0 -16 5 -31 5 -34 0
-3 -5 -18 -5 -34 0 -15 4 -34 4 -41 0 -6 -4 -27 -4 -45 0 -18 4 -39 4 -45 0
-7 -4 -26 -4 -41 0 -16 5 -31 5 -34 0 -3 -5 -18 -5 -34 0 -15 4 -34 4 -41 0
-6 -4 -27 -4 -45 0 -18 4 -39 4 -45 0 -7 -4 -26 -4 -41 0 -16 5 -31 5 -34 0
-3 -5 -18 -5 -34 0 -15 4 -34 4 -41 0 -6 -4 -27 -4 -45 0 -18 4 -39 4 -45 0
-7 -4 -26 -4 -41 0 -16 5 -31 5 -34 0 -3 -5 -18 -5 -34 0 -15 4 -34 4 -41 0
-6 -4 -27 -4 -45 0 -18 4 -39 4 -45 0 -7 -4 -26 -4 -41 0 -16 5 -31 5 -34 0
-3 -5 -18 -5 -34 0 -15 4 -34 4 -41 0 -6 -4 -27 -4 -45 0 -18 4 -39 4 -45 0
-7 -4 -26 -4 -41 0 -16 5 -31 5 -34 0 -3 -5 -18 -5 -34 0 -15 4 -34 4 -41 0
-6 -4 -27 -4 -45 0 -18 4 -39 4 -45 0 -7 -4 -26 -4 -41 0 -16 5 -31 5 -34 0
-3 -5 -18 -5 -34 0 -15 4 -34 4 -41 0 -6 -4 -27 -4 -45 0 -18 4 -39 4 -45 0
-7 -4 -26 -4 -41 0 -16 5 -31 5 -34 0 -3 -5 -18 -5 -34 0 -15 4 -34 4 -41 0
-6 -4 -27 -4 -45 0 -18 4 -39 4 -45 0 -7 -4 -26 -4 -41 0 -16 5 -31 5 -34 0
-3 -5 -18 -5 -34 0 -15 4 -34 4 -41 0 -6 -4 -27 -4 -45 0 -18 4 -39 4 -45 0
-7 -4 -26 -4 -41 0 -16 5 -31 5 -34 0 -3 -5 -18 -5 -34 0 -15 4 -34 4 -42 0
-7 -5 -16 -7 -21 -4 -4 2 -23 5 -43 6 -28 1 -35 5 -35 22 -4 186 1 3589 4
3595 3 4 603 7 1333 7 l1328 -1 0 -315z"/>
</g>
</svg>
